<?xml version="1.0" encoding="UTF-8"?>
<svg xmlns="http://www.w3.org/2000/svg" xmlns:xlink="http://www.w3.org/1999/xlink" width="900px" height="529px" viewBox="0 0 400 400" version="1.1">
<g id="surface1">
<path style=" stroke:none;fill-rule:nonzero;fill:rgb(0%,47.843137%,80%);fill-opacity:1;" d="M 297.835938 103.039062 C 308.476562 105.511719 318.148438 111.085938 325.625 119.050781 C 329.742188 123.359375 333.320312 128.160156 336.273438 133.335938 C 336.414062 133.898438 317.101562 146.875 305.386719 154.113281 C 304.960938 154.398438 303.273438 152.5625 301.363281 149.738281 C 297.011719 142.261719 289.132812 137.542969 280.488281 137.238281 C 267.023438 136.3125 258.351562 143.363281 258.414062 155.148438 C 258.296875 158.046875 258.957031 160.921875 260.324219 163.476562 C 263.289062 169.601562 268.789062 173.273438 286.0625 180.761719 C 317.863281 194.449219 331.511719 203.476562 339.9375 216.300781 C 349.578125 232.703125 351.480469 252.527344 345.136719 270.460938 C 336.367188 290.253906 317.546875 303.726562 295.988281 305.648438 C 284.734375 306.941406 273.363281 306.824219 262.136719 305.300781 C 244.945312 302.476562 229.105469 294.222656 216.9375 281.75 C 212.339844 276.574219 208.449219 270.8125 205.363281 264.613281 C 206.660156 263.648438 208.027344 262.777344 209.449219 262.011719 C 211.425781 260.886719 218.898438 256.585938 225.949219 252.5 L 238.75 245 L 241.425781 248.898438 C 245.929688 255.34375 251.664062 260.832031 258.300781 265.050781 C 271.964844 272.546875 288.6875 271.699219 301.523438 262.863281 C 308.226562 256.328125 309.28125 245.933594 304.023438 238.1875 C 300.574219 233.25 293.523438 229.101562 273.488281 220.414062 C 257.777344 215.113281 243.464844 206.332031 231.625 194.726562 C 225.988281 188.300781 221.824219 180.71875 219.425781 172.511719 C 217.652344 163.164062 217.390625 153.59375 218.648438 144.164062 C 223.46875 121.933594 241.664062 105.082031 264.199219 101.988281 C 275.402344 100.648438 286.742188 101.003906 297.835938 103.039062 Z M 193.550781 121.574219 L 193.6875 139.75 L 135.8125 139.75 L 135.8125 304.101562 L 95 304.101562 L 95 139.789062 L 37.125 139.789062 L 37.125 121.9375 C 36.972656 115.824219 37.136719 109.707031 37.625 103.613281 C 37.835938 103.324219 73.023438 103.1875 115.6875 103.261719 L 193.324219 103.476562 Z M 193.550781 121.574219 "/>
</g>
</svg>
