<?xml version="1.0" encoding="UTF-8"?>
<svg xmlns="http://www.w3.org/2000/svg" xmlns:xlink="http://www.w3.org/1999/xlink" width="900px" height="529px" viewBox="0 0 198 25" version="1.1">
<defs>
<clipPath id="clip1">
  <path d="M 0 0 L 41 0 L 41 24.546875 L 0 24.546875 Z M 0 0 "/>
</clipPath>
</defs>
<g id="surface1">
<g clip-path="url(#clip1)" clip-rule="nonzero">
<path style=" stroke:none;fill-rule:evenodd;fill:rgb(21.960784%,74.117647%,97.254902%);fill-opacity:1;" d="M 20.40625 0 C 14.964844 0 11.5625 2.726562 10.203125 8.183594 C 12.242188 5.453125 14.625 4.433594 17.34375 5.113281 C 18.894531 5.503906 20.003906 6.632812 21.234375 7.882812 C 23.234375 9.917969 25.550781 12.273438 30.605469 12.273438 C 36.046875 12.273438 39.449219 9.546875 40.808594 4.089844 C 38.769531 6.816406 36.386719 7.839844 33.667969 7.160156 C 32.117188 6.769531 31.007812 5.640625 29.777344 4.390625 C 27.777344 2.355469 25.460938 0 20.40625 0 Z M 10.203125 12.273438 C 4.761719 12.273438 1.359375 15 0 20.453125 C 2.039062 17.726562 4.421875 16.703125 7.140625 17.386719 C 8.695312 17.777344 9.804688 18.90625 11.03125 20.152344 C 13.03125 22.1875 15.347656 24.546875 20.40625 24.546875 C 25.847656 24.546875 29.246094 21.816406 30.605469 16.363281 C 28.566406 19.089844 26.1875 20.113281 23.464844 19.433594 C 21.914062 19.042969 20.804688 17.914062 19.574219 16.664062 C 17.574219 14.628906 15.257812 12.273438 10.203125 12.273438 Z M 10.203125 12.273438 "/>
</g>
<path style=" stroke:none;fill-rule:evenodd;fill:rgb(5.882353%,9.019608%,16.470588%);fill-opacity:1;" d="M 61.210938 10.34375 L 57.648438 10.34375 L 57.648438 17.25 C 57.648438 19.09375 58.855469 19.066406 61.210938 18.949219 L 61.210938 21.742188 C 56.445312 22.316406 54.546875 20.992188 54.546875 17.25 L 54.546875 10.34375 L 51.90625 10.34375 L 51.90625 7.347656 L 54.546875 7.347656 L 54.546875 3.480469 L 57.648438 2.5625 L 57.648438 7.347656 L 61.210938 7.347656 Z M 74.785156 7.347656 L 77.886719 7.347656 L 77.886719 21.742188 L 74.785156 21.742188 L 74.785156 19.667969 C 73.695312 21.195312 72 22.117188 69.757812 22.117188 C 65.855469 22.117188 62.609375 18.804688 62.609375 14.546875 C 62.609375 10.257812 65.855469 6.972656 69.757812 6.972656 C 72 6.972656 73.695312 7.894531 74.785156 9.390625 Z M 70.246094 19.152344 C 72.832031 19.152344 74.785156 17.222656 74.785156 14.546875 C 74.785156 11.867188 72.832031 9.9375 70.246094 9.9375 C 67.664062 9.9375 65.710938 11.867188 65.710938 14.546875 C 65.710938 17.222656 67.664062 19.152344 70.246094 19.152344 Z M 83.054688 5.1875 C 81.964844 5.1875 81.074219 4.269531 81.074219 3.203125 C 81.074219 2.105469 81.964844 1.210938 83.058594 1.210938 C 84.15625 1.210938 85.042969 2.105469 85.042969 3.203125 C 85.042969 4.300781 84.15625 5.191406 83.058594 5.191406 C 83.058594 6.257812 82.167969 7.179688 81.078125 7.179688 Z M 81.503906 21.742188 L 81.503906 7.347656 L 84.605469 7.347656 L 84.605469 21.742188 Z M 88.195312 21.742188 L 88.195312 0.726562 L 91.296875 0.726562 L 91.296875 21.742188 Z M 111.429688 7.347656 L 114.703125 7.347656 L 110.195312 21.742188 L 107.148438 21.742188 L 104.164062 12.039062 L 101.148438 21.742188 L 98.105469 21.742188 L 93.59375 7.347656 L 96.867188 7.347656 L 99.65625 17.28125 L 102.667969 7.347656 L 105.628906 7.347656 L 108.613281 17.28125 Z M 118.550781 5.1875 C 117.460938 5.1875 116.570312 4.269531 116.570312 3.203125 C 116.570312 2.105469 117.457031 1.210938 118.554688 1.210938 C 119.652344 1.210938 120.539062 2.105469 120.539062 3.203125 C 120.539062 4.300781 119.652344 5.191406 118.554688 5.191406 C 118.554688 6.257812 117.664062 7.179688 116.574219 7.179688 Z M 117 21.742188 L 117 7.347656 L 120.101562 7.347656 L 120.101562 21.742188 Z M 131.242188 6.972656 C 134.460938 6.972656 136.757812 9.164062 136.757812 12.90625 L 136.757812 21.742188 L 133.65625 21.742188 L 133.65625 13.222656 C 133.65625 11.035156 132.390625 9.882812 130.441406 9.882812 C 128.402344 9.882812 126.792969 11.089844 126.792969 14.027344 L 126.792969 21.742188 L 123.691406 21.742188 L 123.691406 7.347656 L 126.792969 7.347656 L 126.792969 9.191406 C 127.738281 7.695312 129.289062 6.972656 131.242188 6.972656 Z M 151.460938 1.589844 L 154.5625 1.589844 L 154.5625 21.742188 L 151.460938 21.742188 L 151.460938 19.667969 C 150.371094 21.195312 148.675781 22.117188 146.433594 22.117188 C 142.53125 22.117188 139.285156 18.804688 139.285156 14.546875 C 139.285156 10.257812 142.53125 6.972656 146.433594 6.972656 C 148.675781 6.972656 150.371094 7.894531 151.460938 9.390625 Z M 146.921875 19.152344 C 149.507812 19.152344 151.460938 17.222656 151.460938 14.546875 C 151.460938 11.867188 149.507812 9.9375 146.921875 9.9375 C 144.339844 9.9375 142.386719 11.867188 142.386719 14.546875 C 142.386719 17.222656 144.339844 19.152344 146.921875 19.152344 Z M 164.957031 22.117188 C 160.621094 22.117188 157.375 18.804688 157.375 14.546875 C 157.375 10.257812 160.621094 6.972656 164.957031 6.972656 C 167.773438 6.972656 170.214844 8.441406 171.363281 10.6875 L 168.691406 12.242188 C 168.058594 10.890625 166.652344 10.027344 164.929688 10.027344 C 162.402344 10.027344 160.476562 11.953125 160.476562 14.546875 C 160.476562 17.136719 162.402344 19.066406 164.929688 19.066406 C 166.652344 19.066406 168.058594 18.171875 168.75 16.847656 L 171.417969 18.375 C 170.214844 20.648438 167.773438 22.117188 164.957031 22.117188 Z M 176.53125 11.320312 C 176.53125 13.941406 184.257812 12.359375 184.257812 17.683594 C 184.257812 20.5625 181.757812 22.117188 178.65625 22.117188 C 175.785156 22.117188 173.71875 20.820312 172.796875 18.75 L 175.46875 17.195312 C 175.929688 18.488281 177.078125 19.265625 178.65625 19.265625 C 180.035156 19.265625 181.097656 18.804688 181.097656 17.65625 C 181.097656 15.09375 173.371094 16.53125 173.371094 11.378906 C 173.371094 8.671875 175.699219 6.972656 178.628906 6.972656 C 180.984375 6.972656 182.933594 8.066406 183.941406 9.96875 L 181.328125 11.4375 C 180.808594 10.3125 179.804688 9.796875 178.628906 9.796875 C 177.507812 9.796875 176.53125 10.285156 176.53125 11.320312 Z M 189.769531 11.320312 C 189.769531 13.941406 197.496094 12.359375 197.496094 17.683594 C 197.496094 20.5625 194.996094 22.117188 191.894531 22.117188 C 189.023438 22.117188 186.957031 20.820312 186.035156 18.75 L 188.707031 17.195312 C 189.167969 18.488281 190.316406 19.265625 191.894531 19.265625 C 193.273438 19.265625 194.335938 18.804688 194.335938 17.65625 C 194.335938 15.09375 186.609375 16.53125 186.609375 11.378906 C 186.609375 8.671875 188.9375 6.972656 191.867188 6.972656 C 194.222656 6.972656 196.175781 8.066406 197.179688 9.96875 L 194.566406 11.4375 C 194.050781 10.3125 193.042969 9.796875 191.867188 9.796875 C 190.746094 9.796875 189.769531 10.285156 189.769531 11.320312 Z M 189.769531 11.320312 "/>
</g>
</svg>
