<?xml version="1.0" encoding="UTF-8"?>
<svg xmlns="http://www.w3.org/2000/svg" xmlns:xlink="http://www.w3.org/1999/xlink" width="900px" height="529px" viewBox="0 0 600 600" version="1.1">
<g id="surface1">
<path style=" stroke:none;fill-rule:nonzero;fill:rgb(0%,47.843137%,80%);fill-opacity:1;" d="M 446.757812 154.554688 C 462.71875 158.269531 477.222656 166.628906 488.4375 178.574219 C 494.617188 185.042969 499.980469 192.238281 504.414062 200.007812 C 504.617188 200.851562 475.648438 220.3125 458.082031 231.167969 C 457.445312 231.601562 454.914062 228.84375 452.042969 224.605469 C 445.519531 213.390625 433.695312 206.3125 420.730469 205.855469 C 400.539062 204.46875 387.523438 215.042969 387.617188 232.726562 C 387.445312 237.070312 388.433594 241.378906 390.488281 245.210938 C 394.929688 254.398438 403.179688 259.914062 429.09375 271.144531 C 476.792969 291.675781 497.269531 305.210938 509.90625 324.449219 C 524.367188 349.054688 527.21875 378.789062 517.707031 405.695312 C 504.550781 435.378906 476.324219 455.589844 443.980469 458.476562 C 427.101562 460.410156 410.042969 460.234375 393.207031 457.949219 C 367.414062 453.710938 343.65625 441.332031 325.40625 422.625 C 318.511719 414.859375 312.671875 406.214844 308.042969 396.917969 C 309.988281 395.472656 312.039062 394.167969 314.175781 393.019531 C 317.136719 391.332031 328.351562 384.882812 338.925781 378.75 L 358.125 367.5 L 362.136719 373.351562 C 368.894531 383.015625 377.5 391.246094 387.449219 397.574219 C 407.945312 408.816406 433.03125 407.546875 452.289062 394.292969 C 462.339844 384.496094 463.921875 368.898438 456.039062 357.28125 C 450.863281 349.875 440.289062 343.648438 410.230469 330.617188 C 386.664062 322.671875 365.195312 309.5 347.4375 292.085938 C 338.980469 282.449219 332.734375 271.078125 329.136719 258.769531 C 326.476562 244.746094 326.085938 230.390625 327.976562 216.242188 C 335.203125 182.898438 362.5 157.625 396.300781 152.980469 C 413.101562 150.972656 430.113281 151.503906 446.757812 154.554688 Z M 290.324219 182.363281 L 290.53125 209.625 L 203.71875 209.625 L 203.71875 456.148438 L 142.5 456.148438 L 142.5 209.679688 L 55.6875 209.679688 L 55.6875 182.90625 C 55.457031 173.738281 55.707031 164.5625 56.4375 155.417969 C 56.757812 154.988281 109.539062 154.78125 173.53125 154.894531 L 289.988281 155.210938 Z M 290.324219 182.363281 "/>
</g>
</svg>
